<svg xmlns="http://www.w3.org/2000/svg" fill="none" viewBox="0 0 48 48"><path fill="#fff" d="M13.5 44h29a.5.5 0 0 0 .5-.5V14h-8.5a1.5 1.5 0 0 1-1.5-1.5V4H13.5a.5.5 0 0 0-.5.5v39a.5.5 0 0 0 .5.5z"/><path fill="#fff" d="M42.29 13 34 4.71v7.79a.5.5 0 0 0 .5.5h7.79z"/><path fill="#605E5C" fill-rule="evenodd" d="m43.56 12.85-9.41-9.41A1.52 1.52 0 0 0 33.09 3H13.5A1.5 1.5 0 0 0 12 4.5v39a1.5 1.5 0 0 0 1.5 1.5h29a1.5 1.5 0 0 0 1.5-1.5V13.91a1.52 1.52 0 0 0-.44-1.06zM34 4.71 42.29 13H34.5a.5.5 0 0 1-.5-.5V4.71zM13.5 44h29a.5.5 0 0 0 .5-.5V14h-8.5a1.5 1.5 0 0 1-1.5-1.5V4H13.5a.5.5 0 0 0-.5.5v39a.5.5 0 0 0 .5.5z" clip-rule="evenodd" opacity=".64"/><rect width="22" height="22" x="4" y="15" fill="#AF2031" rx="2"/><path fill="#fff" fill-rule="evenodd" d="M16.45 20h-2.83L9 32h2.64l1-3h4.68l1 3H21l-4.55-12zm-1.18 3 1.45 4.29-3.51.03L14.68 23c.12-.324.206-.659.26-1H15c.055.342.146.677.27 1z" clip-rule="evenodd"/><path fill="#C94F60" d="M39 22v8.5a.5.5 0 0 1-.5.5H28v1h10.5a1.5 1.5 0 0 0 1.5-1.5V22h-1z"/><path fill="#E08095" d="M40 23H28v-3h10.5a1.5 1.5 0 0 1 1.5 1.5V23z"/><path fill="#C94F60" d="M36.5 28h-3a.5.5 0 0 0 0 1h3a.5.5 0 0 0 0-1z"/><path fill="#E08095" d="M36.5 25h-3a.5.5 0 0 0 0 1h3a.5.5 0 0 0 0-1z"/><path fill="#AF2031" d="M30.5 28H28v1h2.5a.5.5 0 0 0 0-1z"/><path fill="#C94F60" d="M30.5 25H28v1h2.5a.5.5 0 0 0 0-1z"/></svg>