<svg xmlns="http://www.w3.org/2000/svg" fill="none" viewBox="0 0 48 48"><path fill="#605E5C" fill-rule="evenodd" d="M14.5 45h25c.827 0 1.5-.673 1.5-1.5V15h1.5c.827 0 1.5-.673 1.5-1.5v-7c0-.827-.673-1.5-1.5-1.5H41v-.5c0-.827-.673-1.5-1.5-1.5h-25c-.827 0-1.5.673-1.5 1.5v39c0 .827.673 1.5 1.5 1.5zM14 4.5a.5.5 0 0 1 .5-.5h25a.5.5 0 0 1 .5.5V5a1 1 0 0 0 1 1h1.5a.5.5 0 0 1 .5.5v7a.5.5 0 0 1-.5.5H41a1 1 0 0 0-1 1v28.5a.5.5 0 0 1-.5.5h-25a.5.5 0 0 1-.5-.5v-39z" clip-rule="evenodd" opacity=".64"/><path fill="#fff" d="M42.5 14a.5.5 0 0 0 .5-.5v-7a.5.5 0 0 0-.5-.5H41a1 1 0 0 1-1-1v-.5a.5.5 0 0 0-.5-.5h-25a.5.5 0 0 0-.5.5v39a.5.5 0 0 0 .5.5h25a.5.5 0 0 0 .5-.5V15a1 1 0 0 1 1-1h1.5z"/><path fill="#7719AA" d="M6 37h18a2 2 0 0 0 2-2V17a2 2 0 0 0-2-2H6a2 2 0 0 0-2 2v18a2 2 0 0 0 2 2z"/><path fill="#F9F7F7" d="M9.203 20h3.255l5.76 8.703-.03-8.703h2.578v12h-3.12l-5.838-8.556c.047.369.07 8.556.07 8.556H9.203V20z"/></svg>