<svg xmlns="http://www.w3.org/2000/svg" fill="none" viewBox="0 0 48 48"><path fill="#fff" d="M41 40.5c0 .827-.673 1.5-1.5 1.5H16v1.5a.5.5 0 0 0 .5.5h26a.5.5 0 0 0 .5-.5v-36h.5V7l-3-2v3.5h.5v32z"/><path fill="#fff" d="M13.5 41h26a.5.5 0 0 0 .5-.5v-32H13v32a.5.5 0 0 0 .5.5z"/><path fill="#605E5C" d="M43 8v35.5a.5.5 0 0 1-.5.5h-26a.5.5 0 0 1-.5-.5V42h23.5c.827 0 1.5-.673 1.5-1.5v-32h-1v32a.5.5 0 0 1-.5.5h-26a.5.5 0 0 1-.5-.5v-32h-1v32c0 .827.673 1.5 1.5 1.5H15v1.5c0 .827.673 1.5 1.5 1.5h26c.827 0 1.5-.673 1.5-1.5V8h-1z" opacity=".64"/><path fill="#FF8F6B" d="M41 3.097A.991.991 0 0 0 40.586 3H13a1 1 0 0 0-1 1v4l.5.5h28L41 8V6.75l.5-.5V4.5L41 3.097z"/><path fill="#ED6C47" fill-rule="evenodd" d="M41.853 6.854 44 9V6.414a1 1 0 0 0-.293-.707l-2.414-2.414A.997.997 0 0 0 41 3.097v4.11a.5.5 0 0 1 .853-.353zM12 8h29v1H12V8zm18 16 1 1h6v.5a6.5 6.5 0 0 1-9 6V25l1-1h1z" clip-rule="evenodd"/><path fill="#FF8F6B" d="M30.5 19c-.887 0-1.73.18-2.5.503V25h3v-6h-.5z"/><path fill="#FFC7B5" d="M33 17v6h6a6 6 0 0 0-6-6z"/><path fill="#C43E1C" d="M6 37h18a2 2 0 0 0 2-2V17a2 2 0 0 0-2-2H6a2 2 0 0 0-2 2v18a2 2 0 0 0 2 2z"/><path fill="#F9F7F7" fill-rule="evenodd" d="M18.884 20.962c-.743-.642-1.816-.962-3.216-.962H11v12h2.29v-4.243h2.23c.895 0 1.68-.168 2.359-.506.678-.338 1.202-.81 1.57-1.418.367-.608.551-1.304.551-2.084 0-1.216-.371-2.145-1.116-2.787zm-3.625 4.963h-1.97v-4.067h2.044c1.504 0 2.256.661 2.256 1.983 0 .681-.197 1.197-.589 1.552-.392.355-.971.532-1.741.532z" clip-rule="evenodd"/></svg>