<svg xmlns="http://www.w3.org/2000/svg" fill="none" viewBox="0 0 48 48"><path fill="#fff" d="M9.5 44h29c.275 0 .5-.225.5-.5V14h-8.5c-.827 0-1.5-.673-1.5-1.5V4H9.5c-.275 0-.5.225-.5.5v39c0 .275.225.5.5.5z"/><path fill="#fff" d="M38.293 13 30 4.707V12.5c0 .275.225.5.5.5h7.793z"/><path fill="#605E5C" fill-rule="evenodd" d="m39.56 12.854-9.414-9.415A1.51 1.51 0 0 0 29.086 3H9.5C8.673 3 8 3.673 8 4.5v39c0 .827.673 1.5 1.5 1.5h29c.827 0 1.5-.673 1.5-1.5V13.914c0-.4-.156-.777-.44-1.06zM30 4.707 38.293 13H30.5a.501.501 0 0 1-.5-.5V4.707zM9.5 44h29c.275 0 .5-.225.5-.5V14h-8.5c-.827 0-1.5-.673-1.5-1.5V4H9.5c-.275 0-.5.225-.5.5v39a.5.5 0 0 0 .5.5z" clip-rule="evenodd" opacity=".64"/><path stroke="#C8C6C4" stroke-linejoin="round" d="M29.5 29.5h-11a2 2 0 0 1-2-2v-10h15v10a2 2 0 0 1-2 2z" clip-rule="evenodd"/><path fill="#C8C6C4" d="M33.5 18a.5.5 0 0 0 0-1v1zm-19-1a.5.5 0 0 0 0 1v-1zm4.5 9.5a.5.5 0 0 0 1 0h-1zm1-6a.5.5 0 0 0-1 0h1zM33.5 17h-19v1h19v-1zM20 26.5v-6h-1v6h1z"/><path stroke="#F5BA9D" stroke-linecap="round" stroke-linejoin="round" d="M22.5 26.5v-5"/><path stroke="#C8C6C4" stroke-linecap="round" stroke-linejoin="round" d="M25.502 26.5v-4"/><path stroke="#F5BA9D" stroke-linecap="round" stroke-linejoin="round" d="M28.502 26.5v-3"/><path fill="#C8C6C4" fill-rule="evenodd" d="M25 30h-2v1h-1.5a.5.5 0 0 0 0 1h5a.5.5 0 0 0 0-1H25v-1z" clip-rule="evenodd"/><path fill="#D04727" d="M16 37.5a.5.5 0 0 0 1 0h-1zm1-4a.5.5 0 0 0-1 0h1zm-2.975 1.146a.5.5 0 1 0 .707.707l-.707-.707zM16.5 32.88l.354-.354a.5.5 0 0 0-.708 0l.354.354zm1.767 2.474a.5.5 0 0 0 .707-.707l-.707.707zM17 37.5v-4h-1v4h1zm-2.268-2.147 2.122-2.12-.708-.708-2.12 2.121.707.707zm1.414-2.12 2.121 2.12.707-.707-2.12-2.12-.708.706z"/></svg>