<svg xmlns="http://www.w3.org/2000/svg" fill="none" viewBox="0 0 48 48"><path fill="#fff" d="M13.5 44h29a.5.5 0 0 0 .5-.5V14h-8.5a1.5 1.5 0 0 1-1.5-1.5V4H13.5a.5.5 0 0 0-.5.5v39a.5.5 0 0 0 .5.5z"/><path fill="#fff" d="M42.29 13 34 4.71v7.79a.5.5 0 0 0 .5.5h7.79z"/><path fill="#605E5C" fill-rule="evenodd" d="m43.56 12.85-9.41-9.41A1.52 1.52 0 0 0 33.09 3H13.5A1.5 1.5 0 0 0 12 4.5v39a1.5 1.5 0 0 0 1.5 1.5h29a1.5 1.5 0 0 0 1.5-1.5V13.91a1.52 1.52 0 0 0-.44-1.06zM34 4.71 42.29 13H34.5a.5.5 0 0 1-.5-.5V4.71zM13.5 44h29a.5.5 0 0 0 .5-.5V14h-8.5a1.5 1.5 0 0 1-1.5-1.5V4H13.5a.5.5 0 0 0-.5.5v39a.5.5 0 0 0 .5.5z" clip-rule="evenodd" opacity=".64"/><rect width="22" height="22" x="4" y="15" fill="#185ABD" rx="2"/><path fill="#fff" d="M14.4 28.07c.353 1.02.553 1.663.6 1.93.07-.26.29-.95.68-2l2.81-8H21l-4.67 12h-2.71L9 20h2.58l2.82 8.07z"/><path fill="#185ABD" d="M34.5 26a.5.5 0 0 1-.5-.5v-3h-1v3a.5.5 0 0 1-.5.5h-2v1h5a.5.5 0 0 1 .5.5v3h1v-3a1.5 1.5 0 0 0-1.5-1.5h-1z"/><path fill="#41A5EE" d="M28 23h3v7h-3z"/><path fill="#103F91" d="m29.494 19.501 4.002-4.002 4.002 4.002-4.002 4.002z"/><path fill="#2B7CD3" d="M36.5 37a3.5 3.5 0 1 0 0-7 3.5 3.5 0 0 0 0 7z"/></svg>