<svg xmlns="http://www.w3.org/2000/svg" fill="none" viewBox="0 0 48 48"><path fill="#fff" d="M13.5 44h29c.275 0 .5-.225.5-.5V14h-8.5c-.827 0-1.5-.673-1.5-1.5V4H13.5c-.275 0-.5.225-.5.5v39c0 .275.225.5.5.5z"/><path fill="#fff" d="M42.293 13 34 4.707V12.5c0 .275.225.5.5.5h7.793z"/><path fill="#605E5C" fill-rule="evenodd" d="m43.56 12.854-9.414-9.415A1.51 1.51 0 0 0 33.086 3H13.5c-.827 0-1.5.673-1.5 1.5v39c0 .827.673 1.5 1.5 1.5h29c.827 0 1.5-.673 1.5-1.5V13.914c0-.4-.156-.777-.44-1.06zM34 4.707 42.293 13H34.5a.501.501 0 0 1-.5-.5V4.707zM13.5 44h29c.275 0 .5-.225.5-.5V14h-8.5c-.827 0-1.5-.673-1.5-1.5V4H13.5c-.275 0-.5.225-.5.5v39a.5.5 0 0 0 .5.5z" clip-rule="evenodd" opacity=".64"/><path fill="#C3A9D4" d="M22 21h15.5a.5.5 0 0 0 0-1H22v1z"/><path stroke="#C8C6C4" d="M38.5 22.5h-21v-4h21a1 1 0 0 1 1 1v2a1 1 0 0 1-1 1z" clip-rule="evenodd"/><path fill="#C3A9D4" d="M22 28h15.5a.5.5 0 0 0 0-1H22v1z"/><path stroke="#C8C6C4" d="M38.5 29.5h-21v-4h21a1 1 0 0 1 1 1v2a1 1 0 0 1-1 1z" clip-rule="evenodd"/><path fill="#C3A9D4" d="M22 35h15.5a.5.5 0 0 0 0-1H22v1z"/><path stroke="#C8C6C4" d="M38.5 36.5h-21v-4h21a1 1 0 0 1 1 1v2a1 1 0 0 1-1 1z" clip-rule="evenodd"/><path fill="#6A3889" d="M6 37h18a2 2 0 0 0 2-2V17a2 2 0 0 0-2-2H6a2 2 0 0 0-2 2v18a2 2 0 0 0 2 2z"/><path fill="#fff" d="M16.5 32h-3V20h3v12z"/></svg>