<?xml version="1.0" encoding="UTF-8"?>
<svg id="a" data-name="Layer 1" xmlns="http://www.w3.org/2000/svg" viewBox="0 0 512 512">
  <defs>
    <style>
      .b { fill: #4E84C4; }
      .c { font-family: Aptos-Bold, Aptos; font-size: 197.64706px; font-weight: 700; }
      .d { letter-spacing: .00146em; }
      .e { fill: #fff; } </style>
  </defs>
  <rect class="e" x="0" y="0" width="512" height="512" rx="255.99974" ry="255.99974"/>
  <text class="c" transform="translate(138.74365 459.85332)"><tspan class="d" x="0" y="0">DS</tspan></text>
  <g>
    <path class="b" d="M261.99508,60.25857c34.94344,3.04206,64.06269,32.27167,66.43284,67.43183-14.10382-.51981-31.44288,2.99247-43.41381-7.28517-10.99798-8.79455-11.94094-23.55865-30.2863-22.7052-16.73698.77863-18.24113,16.45256-30.04027,24.40076-3.13167,2.10958-11.24844,5.5896-14.88969,5.5896h-26.22349c2.4457-39.47071,39.17764-70.87564,78.42072-67.43183Z"/>
    <path class="b" d="M213.54405,241.57526c-7.6543,70.77615,92.74097,70.63673,84.91416,0,34.92746,6.26446,71.89685,15.5924,74.94392,57.67284.36313,5.77519,1.06939,14.94887-5.76425,16.75145.00037.00045-34.21503.00045-34.21503.00045v-26.72298c0-.21865-1.84636-3.39707-2.2352-3.75876-4.19069-4.05079-11.27171-1.43091-12.74937,3.75929-.00029-.00053-.00029,26.72245-.00029,26.72245h-124.87374v-26.72298c0-.21865-1.84637-3.39707-2.23519-3.75876-4.19069-4.05079-11.2717-1.43091-12.74938,3.75929-.00028-.00053-.00028,26.72245-.00028,26.72245h-34.21542c-6.82842-1.81201-6.13307-10.96655-5.76483-16.75434,3.06161-42.21094,40.02033-51.29679,74.9449-57.67042v.00002Z"/>
    <path class="b" d="M313.44565,142.67266c15.26621,113.541-130.22051,113.46569-114.88903,0,17.73011,1.35436,34.22434-4.2807,45.44301-18.24261,2.65559-3.30495,5.75916-10.17595,9.64287-11.33382,14.27966-3.52142,13.35025,32.68538,59.80315,29.57643ZM242.38401,185.24497c-19.84744,9.60301,13.61628,30.013,30.11127,13.6334,6.27289-6.06805,1.6929-15.51666-6.41576-13.40368-2.38636.62184-3.82527,2.62169-5.89393,3.59239-8.75125,4.1064-10.81674-5.02351-17.80159-3.82212h.00001Z"/>
    <path class="b" d="M283.47335,237.0798v18.73107c0,11.95043-13.84739,23.39924-25.2321,24.21776-13.1479.94531-29.71235-10.26122-29.71235-24.21776v-18.73107c17.3062,7.27668,37.65815,7.40532,54.94445,0Z"/>
    <path class="b" d="M187.98802,195.2064c4.44078,11.92099,11.95425,22.37151,21.71825,30.47653.43398.43943,1.09339.42273.83838,1.40429-25.46571,5.38362-53.59953,9.34316-70.92069,30.96894,3.29382-33.35565,30.20331-38.06837,40.53341-62.85223l7.83065.00245h0Z"/>
    <path class="b" d="M331.84489,195.20395c10.49082,24.20448,38.26718,32.06049,40.53337,62.85226-17.35187-21.1693-45.43988-26.22502-70.92269-30.96867-.31894-1.1691.30178-.84219.63856-1.13993,9.80365-8.66733,17.37606-18.31019,21.91799-30.74341l7.83274-.00024h.00002Z"/>
    <path class="b" d="M183.57436,142.67525v37.46213c-20.41276.02931-20.98591-37.41375,0-37.46213Z"/>
    <path class="b" d="M328.42792,180.13737v-37.46213c20.41277-.02931,20.9859,37.41375,0,37.46213Z"/>
  </g>
</svg>