<?xml version="1.0" encoding="UTF-8"?>
<svg id="a" data-name="Layer 1" xmlns="http://www.w3.org/2000/svg" viewBox="0 0 512 512">
  <defs>
    <style>
      .b { fill: #4E84C4; }
      .c { font-family: Aptos-Bold, Aptos; font-size: 197.64706px; font-weight: 700; }
      .d { letter-spacing: .00146em; }
      .e { fill: #fff; } </style>
  </defs>
  <rect class="e" x="0" y="0" width="512" height="512" rx="255.99974" ry="255.99974"/>
  <text class="c" transform="translate(138.74365 459.85332)"><tspan class="d" x="0" y="0">SA</tspan></text>
  <g>
    <path class="b" d="M265.50109,60.02149c33.21099,3.78897,60.76358,33.91013,63,66.99438h-27.24999c-3.85661,0-12.50994-4.36927-15.70841-6.79126-8.66077-6.55822-10.97211-18.29939-21.95978-21.78589l-.08179-38.41722c.65671.04182,1.34808-.06488,2,0h-.00002Z"/>
    <path class="b" d="M248.50109,60.02149l-.08179,38.41722c-10.89703,3.57814-13.37812,15.03843-21.96011,21.78581-3.07157,2.41494-11.96661,6.79134-15.70809,6.79134h-27.24999c2.30443-34.15881,30.76145-64.07458,64.99999-66.99437Z"/>
    <path class="b" d="M313.50109,142.01461c15.32701,113.77756-130.39846,113.72216-114.99998,0,50.34447,4.5454,48.20716-44.36164,64.20791-25.95643,6.86748,12.52283,22.89004,25.11653,37.54264,25.95634-.00055.00009,13.24944.00009,13.24944.00009ZM242.88028,184.61951c-7.70568,1.13147-8.14699,9.85282-2.3374,14.59851,13.69108,13.35403,46.35589-1.56825,31.11562-13.61527-6.34511-3.31054-7.26003,1.38917-11.66005,3.15535-9.00017,3.6127-10.75712-5.07261-17.11816-4.13859h-.00001Z"/>
    <path class="b" d="M333.50109,316v-26.74775c0-.21885-1.84823-3.40022-2.23745-3.76224-4.19225-4.10784-11.18169-1.35002-12.76234,3.76271-.0002-.00047-.0002,26.74728-.0002,26.74728h-54.99999v-21.99816c25.88935-5.09807,37.72286-28.1708,34.99998-52.99555,35.17101,6.78338,71.50752,15.15315,75.01988,57.72629.33032,5.85537,1.19471,15.44698-5.77022,17.26697.00033.00045-34.24966.00045-34.24966.00045Z"/>
    <path class="b" d="M213.50109,241.00629c-2.7075,24.85884,9.06633,47.92345,34.99999,52.99555v21.99816h-54.99999v-26.74775c0-.21885-1.84824-3.40022-2.23745-3.76224-4.19224-4.10784-11.18168-1.35002-12.76235,3.76271-.0002-.00047-.0002,26.74728-.0002,26.74728h-34.25c-6.95957-1.82852-6.1064-11.40243-5.7707-17.26983,3.53641-42.64874,39.85723-50.8515,75.02069-57.72388Z"/>
    <path class="b" d="M283.50108,237.00663v18.24846c0,14.50004-17.07674,25.54607-30.68914,24.18726-11.07657-1.10567-24.31085-12.61847-24.31085-24.18726v-18.24846c17.9462,6.42987,37.08081,6.85718,55,0Z"/>
    <path class="b" d="M331.91923,194.59444c10.67896,24.73573,37.56147,30.78564,40.57679,62.91039-17.48505-22.1573-45.27422-25.09703-70.99477-31.00236,9.86112-8.90527,17.96758-19.29247,22.58169-31.90802h7.83626s.00002-.00001.00002-.00001Z"/>
    <path class="b" d="M183.5011,142.01461v37.49686c-20.49693.13576-21.00675-37.21722,0-37.49686Z"/>
    <path class="b" d="M328.50109,179.51146v-37.49686c21.02189.2698,20.4628,37.61809,0,37.49686Z"/>
  </g>
</svg>