<svg xmlns="http://www.w3.org/2000/svg" fill="none" viewBox="0 0 48 48"><path fill="#fff" d="M13.5 44h29c.275 0 .5-.225.5-.5V14h-8.5c-.827 0-1.5-.673-1.5-1.5V4H13.5c-.275 0-.5.225-.5.5v39c0 .275.225.5.5.5z"/><path fill="#fff" d="M42.293 13 34 4.707V12.5c0 .275.225.5.5.5h7.793z"/><path fill="#605E5C" fill-rule="evenodd" d="m43.56 12.854-9.414-9.415A1.51 1.51 0 0 0 33.086 3H13.5c-.827 0-1.5.673-1.5 1.5v39c0 .827.673 1.5 1.5 1.5h29c.827 0 1.5-.673 1.5-1.5V13.914c0-.4-.156-.777-.44-1.06zM34 4.707 42.293 13H34.5a.501.501 0 0 1-.5-.5V4.707zM13.5 44h29c.275 0 .5-.225.5-.5V14h-8.5c-.827 0-1.5-.673-1.5-1.5V4H13.5c-.275 0-.5.225-.5.5v39a.5.5 0 0 0 .5.5z" clip-rule="evenodd" opacity=".64"/><path stroke="#C8C6C4" d="M38.5 38.5h-20a1 1 0 0 1-1-1v-18h21a1 1 0 0 1 1 1v17a1 1 0 0 1-1 1z" clip-rule="evenodd"/><path fill="#8BBF8A" fill-rule="evenodd" d="M20.5 24h15a.5.5 0 0 0 .5-.5v-1a.5.5 0 0 0-.5-.5h-15a.5.5 0 0 0-.5.5v1a.5.5 0 0 0 .5.5zm0 4h15a.5.5 0 0 0 .5-.5v-1a.5.5 0 0 0-.5-.5h-15a.5.5 0 0 0-.5.5v1a.5.5 0 0 0 .5.5zm8 2H39v2H28.5a.5.5 0 0 1-.5-.5v-1a.5.5 0 0 1 .5-.5zM20 35.5a.5.5 0 0 0 .5.5h15a.5.5 0 0 0 .5-.5v-1a.5.5 0 0 0-.5-.5h-15a.5.5 0 0 0-.5.5v1z" clip-rule="evenodd"/><path fill="#31752F" d="M6 37h18a2 2 0 0 0 2-2V17a2 2 0 0 0-2-2H6a2 2 0 0 0-2 2v18a2 2 0 0 0 2 2z"/><path fill="#F9F7F7" fill-rule="evenodd" d="M18.884 20.962c-.743-.642-1.816-.962-3.216-.962H11v12h2.29v-4.243h2.23c.895 0 1.68-.168 2.359-.506.678-.338 1.202-.81 1.57-1.418.367-.608.551-1.304.551-2.084 0-1.216-.371-2.145-1.116-2.787zm-3.625 4.963h-1.97v-4.067h2.044c1.504 0 2.256.661 2.256 1.983 0 .681-.197 1.197-.589 1.552-.392.355-.971.532-1.741.532z" clip-rule="evenodd"/></svg>