<svg xmlns="http://www.w3.org/2000/svg" fill="none" viewBox="0 0 48 48"><path fill="#fff" d="M13.5 44h29a.5.5 0 0 0 .5-.5V14h-8.5a1.5 1.5 0 0 1-1.5-1.5V4H13.5a.5.5 0 0 0-.5.5v39a.5.5 0 0 0 .5.5z"/><path fill="#fff" d="M42.29 13 34 4.71v7.79a.5.5 0 0 0 .5.5h7.79z"/><path fill="#605E5C" fill-rule="evenodd" d="m43.56 12.85-9.41-9.41A1.52 1.52 0 0 0 33.09 3H13.5A1.5 1.5 0 0 0 12 4.5v39a1.5 1.5 0 0 0 1.5 1.5h29a1.5 1.5 0 0 0 1.5-1.5V13.91a1.52 1.52 0 0 0-.44-1.06zM34 4.71 42.29 13H34.5a.5.5 0 0 1-.5-.5V4.71zM13.5 44h29a.5.5 0 0 0 .5-.5V14h-8.5a1.5 1.5 0 0 1-1.5-1.5V4H13.5a.5.5 0 0 0-.5.5v39a.5.5 0 0 0 .5.5z" clip-rule="evenodd" opacity=".64"/><rect width="22" height="22" x="4" y="15" fill="#038387" rx="2"/><path fill="#F9F7F7" fill-rule="evenodd" d="M18.88 21a4.77 4.77 0 0 0-3.21-1H11v12h2.29v-4.24h2.23a5.22 5.22 0 0 0 2.36-.51 3.73 3.73 0 0 0 1.57-1.42 3.921 3.921 0 0 0 .55-2.08A3.46 3.46 0 0 0 18.88 21zm-3.59 4.92h-2l.04-4.08h2c1.51 0 2.26.68 2.26 2a2 2 0 0 1-.59 1.55 2.48 2.48 0 0 1-1.71.53z" clip-rule="evenodd"/><path fill="#038387" d="M39.5 30H28v1h11.5a.5.5 0 0 0 0-1z"/><path fill="#1A9BA1" d="M39.5 27H28v1h11.5a.5.5 0 0 0 0-1z"/><path fill="#37C6D0" d="M28 21h11a1 1 0 0 1 1 1v2a1 1 0 0 1-1 1H28v-4z"/></svg>