<svg xmlns="http://www.w3.org/2000/svg" fill="none" viewBox="0 0 48 48"><path fill="#605E5C" fill-rule="evenodd" d="M13.5 45h29a1.5 1.5 0 0 0 1.5-1.5v-39A1.5 1.5 0 0 0 42.5 3h-29A1.5 1.5 0 0 0 12 4.5v39a1.5 1.5 0 0 0 1.5 1.5zM13 4.5a.5.5 0 0 1 .5-.5h29a.5.5 0 0 1 .5.5v39a.5.5 0 0 1-.5.5h-29a.5.5 0 0 1-.5-.5v-39z" clip-rule="evenodd" opacity=".64"/><rect width="30" height="40" x="13" y="4" fill="#fff" rx=".5"/><rect width="22" height="22" x="4" y="15" fill="#185ABD" rx="2"/><path fill="#fff" d="M14.4 28.07c.353 1.02.553 1.663.6 1.93.07-.26.29-.95.68-2l2.81-8H21l-4.67 12h-2.71L9 20h2.58l2.82 8.07z"/><path fill="#C8C6C4" fill-rule="evenodd" d="M31.5 41h7a1.5 1.5 0 0 0 1.5-1.5v-12a1.5 1.5 0 0 0-1.5-1.5h-7a1.5 1.5 0 0 0-1.5 1.5v12a1.5 1.5 0 0 0 1.5 1.5zM31 27.5a.5.5 0 0 1 .5-.5h7a.5.5 0 0 1 .5.5v12a.5.5 0 0 1-.5.5h-7a.5.5 0 0 1-.5-.5v-12zm.5-5.5h7a1.5 1.5 0 0 0 1.5-1.5v-12A1.5 1.5 0 0 0 38.5 7h-7A1.5 1.5 0 0 0 30 8.5v12a1.5 1.5 0 0 0 1.5 1.5zM31 8.5a.5.5 0 0 1 .5-.5h7a.5.5 0 0 1 .5.5v12a.5.5 0 0 1-.5.5h-7a.5.5 0 0 1-.5-.5v-12z" clip-rule="evenodd" opacity=".64"/><path fill="#C8C6C4" d="M25 38.86v.64a.5.5 0 0 1-.5.5h-7a.5.5 0 0 1-.5-.5V39h-1v.5a1.5 1.5 0 0 0 1.5 1.5h7a1.5 1.5 0 0 0 1.5-1.5v-1.06a3.848 3.848 0 0 1-1 .42zM17 13V8.5a.5.5 0 0 1 .5-.5h7a.5.5 0 0 1 .5.5v4.64c.352.092.688.233 1 .42V8.5A1.5 1.5 0 0 0 24.5 7h-7A1.5 1.5 0 0 0 16 8.5V13h1z" opacity=".64"/></svg>