<svg xmlns="http://www.w3.org/2000/svg" fill="none" viewBox="0 0 48 48"><path fill="#fff" d="M41 40.5a1.5 1.5 0 0 1-1.5 1.5H16v1.5a.5.5 0 0 0 .5.5h26a.5.5 0 0 0 .5-.5v-36h.5V7l-3-2v3.5h.5v32z"/><path fill="#fff" d="M13.5 41h26a.5.5 0 0 0 .5-.5v-32H13v32a.5.5 0 0 0 .5.5z"/><path fill="#605E5C" d="M43 7.5v36a.5.5 0 0 1-.5.5h-26a.5.5 0 0 1-.5-.5V42h23.5a1.5 1.5 0 0 0 1.5-1.5v-32h-1v32a.5.5 0 0 1-.5.5h-26a.5.5 0 0 1-.5-.5v-32h-1v32a1.5 1.5 0 0 0 1.5 1.5H15v1.5a1.5 1.5 0 0 0 1.5 1.5h26a1.5 1.5 0 0 0 1.5-1.5v-36h-1z" opacity=".64"/><rect width="22" height="22" x="4" y="15" fill="#185ABD" rx="2"/><path fill="#fff" d="M14.4 28.07c.353 1.02.553 1.663.6 1.93.07-.26.29-.95.68-2l2.81-8H21l-4.67 12h-2.71L9 20h2.58l2.82 8.07z"/><path fill="#41A5EE" d="M41 3.1a1 1 0 0 0-.41-.1H13a1 1 0 0 0-1 1v4l.5.5h28L41 8V6.75l.5-.5V4.5L41 3.1z"/><path fill="#2B7CD3" d="M12 8h29v1H12zm29.85-1.15L44 9V6.41a1 1 0 0 0-.29-.7l-2.42-2.42A1 1 0 0 0 41 3.1v4.11a.5.5 0 0 1 .85-.36z"/><path fill="#185ABD" d="M34.5 26a.5.5 0 0 1-.5-.5v-5h-1v5a.5.5 0 0 1-.5.5h-2v1h5a.5.5 0 0 1 .5.5v3h1v-3a1.5 1.5 0 0 0-1.5-1.5h-1z"/><path fill="#41A5EE" d="M28 24h3v5h-3z"/><path fill="#103F91" d="m30.498 19.501 2.998-2.998 2.998 2.998-2.998 2.998z"/><path fill="#2B7CD3" d="M36.5 35a2.5 2.5 0 1 0 0-5 2.5 2.5 0 0 0 0 5z"/></svg>