<svg xmlns="http://www.w3.org/2000/svg" fill="none" viewBox="0 0 48 48"><path fill="#fff" d="M41 40.5c0 .827-.673 1.5-1.5 1.5H16v1.5a.5.5 0 0 0 .5.5h26a.5.5 0 0 0 .5-.5v-36h.5V7l-3-2v3.5h.5v32z"/><path fill="#fff" d="M13.5 41h26a.5.5 0 0 0 .5-.5v-32H13v32a.5.5 0 0 0 .5.5z"/><path fill="#605E5C" d="M43 7.5v36a.5.5 0 0 1-.5.5h-26a.5.5 0 0 1-.5-.5V42h23.5c.827 0 1.5-.673 1.5-1.5v-32h-1v32a.5.5 0 0 1-.5.5h-26a.5.5 0 0 1-.5-.5v-32h-1v32c0 .827.673 1.5 1.5 1.5H15v1.5c0 .827.673 1.5 1.5 1.5h26c.827 0 1.5-.673 1.5-1.5v-36h-1z" opacity=".64"/><path fill="#33C481" d="M41 3.097A.991.991 0 0 0 40.586 3H13a1 1 0 0 0-1 1v4l.5.5h28L41 8V6.75l.5-.5V4.5L41 3.097z"/><path fill="#21A366" fill-rule="evenodd" d="m44 9-2.147-2.146a.5.5 0 0 0-.853.353v-4.11a.997.997 0 0 1 .293.196l2.414 2.414a1 1 0 0 1 .293.707V9zm-3-1H12v1h29V8z" clip-rule="evenodd"/><path fill="#134A2C" d="M36 31h-2a1 1 0 1 1 0-2h2a1 1 0 1 1 0 2z"/><path fill="#185C37" d="M30 29h-2v2h2a1 1 0 1 0 0-2z"/><path fill="#21A366" d="M36 27h-2a1 1 0 1 1 0-2h2a1 1 0 1 1 0 2z"/><path fill="#107C41" d="M30 25h-2v2h2a1 1 0 1 0 0-2z"/><path fill="#33C481" d="M36 23h-2a1 1 0 1 1 0-2h2a1 1 0 1 1 0 2z"/><path fill="#21A366" d="M30 21h-2v2h2a1 1 0 1 0 0-2z"/><path fill="#107C41" d="M6 37h18a2 2 0 0 0 2-2V17a2 2 0 0 0-2-2H6a2 2 0 0 0-2 2v18a2 2 0 0 0 2 2z"/><path fill="#F9F7F7" d="m9.519 32 3.85-6.017L9.843 20h2.839l1.926 3.825c.177.362.298.633.365.811h.025c.127-.29.26-.572.398-.845L17.455 20h2.605l-3.62 5.95L20.15 32h-2.77l-2.225-4.2a3.514 3.514 0 0 1-.265-.561h-.033a2.61 2.61 0 0 1-.257.543L12.308 32h-2.79z"/></svg>